<?xml version="1.0" encoding="UTF-8" standalone="no"?><!-- Generator: Gravit.io --><svg xmlns="http://www.w3.org/2000/svg" xmlns:xlink="http://www.w3.org/1999/xlink" style="isolation:isolate" viewBox="0 0 306 166" width="306pt" height="166pt"><defs><clipPath id="_clipPath_sm7N2OEyQH7UarV14K4CcvfW3Y88w6RC"><rect width="306" height="166"/></clipPath></defs><g clip-path="url(#_clipPath_sm7N2OEyQH7UarV14K4CcvfW3Y88w6RC)"><path d=" M 59.277 75.342 L 80.446 75.342 L 80.446 3.364 L 59.277 3.364 L 59.277 75.342 Z " fill="rgb(0,138,234)"/><path d=" M 128.466 57.982 C 118.177 57.982 109.836 49.642 109.836 39.354 C 109.836 29.065 118.177 20.724 128.466 20.724 C 138.753 20.724 147.095 29.065 147.095 39.354 C 147.095 49.642 138.753 57.982 128.466 57.982 Z  M 128.466 0 C 106.731 0 89.111 17.618 89.111 39.354 C 89.111 61.089 106.731 78.708 128.466 78.708 C 150.2 78.708 167.819 61.089 167.819 39.354 C 167.819 17.618 150.2 0 128.466 0 Z " fill="rgb(0,138,234)"/><path d=" M 128.466 145.231 C 118.177 145.231 109.836 136.894 109.836 126.605 C 109.836 116.316 118.177 107.975 128.466 107.975 C 138.753 107.975 147.095 116.316 147.095 126.605 C 147.095 136.894 138.753 145.231 128.466 145.231 Z  M 128.466 87.25 C 106.731 87.25 89.111 104.872 89.111 126.605 C 89.111 148.337 106.731 165.957 128.466 165.957 C 150.2 165.957 167.819 148.337 167.819 126.605 C 167.819 104.872 150.2 87.25 128.466 87.25 Z " fill="rgb(0,138,234)"/><path d=" M 266.647 145.231 C 256.358 145.231 248.017 136.894 248.017 126.605 C 248.017 116.316 256.358 107.975 266.647 107.975 C 276.934 107.975 285.276 116.316 285.276 126.605 C 285.276 136.894 276.934 145.231 266.647 145.231 Z  M 266.647 87.25 C 244.912 87.25 227.293 104.872 227.293 126.605 C 227.293 148.337 244.912 165.957 266.647 165.957 C 288.382 165.957 306 148.337 306 126.605 C 306 104.872 288.382 87.25 266.647 87.25 Z " fill="rgb(0,138,234)"/><path d=" M 247.216 75.342 L 247.216 3.364 L 226.046 3.364 L 226.046 21.13 L 176.484 3.364 L 176.484 75.342 L 197.655 75.342 L 197.655 35.203 L 226.046 45.38 L 226.046 75.342 L 247.216 75.342 Z " fill="rgb(0,138,234)"/><path d=" M 187.069 90.615 L 172.251 90.615 L 172.251 111.785 L 187.069 111.785 L 187.069 162.59 L 208.239 162.59 L 208.239 111.785 L 223.058 111.785 L 223.058 90.615 L 208.239 90.615 L 187.069 90.615 Z " fill="rgb(0,138,234)"/><path d=" M 29.638 162.59 L 50.808 162.59 L 50.808 90.615 L 29.638 90.615 L 29.638 162.59 Z " fill="rgb(0,138,234)"/><path d=" M 283.241 3.364 L 262.071 3.364 L 262.071 75.342 L 283.241 75.342 L 283.241 3.364 Z " fill="rgb(0,138,234)"/><path d=" M 0 162.59 L 21.17 162.59 L 21.17 90.615 L 0 90.615 L 0 162.59 Z " fill="rgb(0,138,234)"/><path d=" M 59.277 162.59 L 80.446 162.59 L 80.446 90.615 L 59.277 90.615 L 59.277 162.59 Z " fill="rgb(0,138,234)"/><path d=" M 0 75.342 L 21.17 75.342 L 21.17 3.364 L 0 3.364 L 0 75.342 Z " fill="rgb(0,138,234)"/><path d=" M 29.638 75.342 L 50.808 75.342 L 50.808 3.364 L 29.638 3.364 L 29.638 75.342 Z " fill="rgb(0,138,234)"/></g></svg>